<mxfile host="app.diagrams.net" agent="Mozilla/5.0 (Macintosh; Intel Mac OS X 10_15_7) AppleWebKit/537.36 (KHTML, like Gecko) Chrome/140.0.0.0 Safari/537.36" version="28.0.7" pages="3">
  <diagram name="非对称算法" id="kJOLXSpGNcWcT1dh-aFm">
    <mxGraphModel dx="1042" dy="535" grid="1" gridSize="10" guides="1" tooltips="1" connect="1" arrows="1" fold="1" page="1" pageScale="1" pageWidth="850" pageHeight="1100" math="0" shadow="0">
      <root>
        <mxCell id="0" />
        <mxCell id="1" parent="0" />
        <mxCell id="cdYQqzGVZBBUTroq5Mpv-5" style="edgeStyle=orthogonalEdgeStyle;rounded=0;orthogonalLoop=1;jettySize=auto;html=1;exitX=0.5;exitY=1;exitDx=0;exitDy=0;entryX=0.5;entryY=0;entryDx=0;entryDy=0;" parent="1" source="cdYQqzGVZBBUTroq5Mpv-3" target="cdYQqzGVZBBUTroq5Mpv-4" edge="1">
          <mxGeometry relative="1" as="geometry" />
        </mxCell>
        <mxCell id="cdYQqzGVZBBUTroq5Mpv-6" value="Hash 函数" style="edgeLabel;html=1;align=center;verticalAlign=middle;resizable=0;points=[];" parent="cdYQqzGVZBBUTroq5Mpv-5" vertex="1" connectable="0">
          <mxGeometry x="-0.1467" y="-2" relative="1" as="geometry">
            <mxPoint as="offset" />
          </mxGeometry>
        </mxCell>
        <mxCell id="cdYQqzGVZBBUTroq5Mpv-3" value="&lt;font style=&quot;font-size: 16px; color: light-dark(rgb(0, 0, 0), rgb(255, 255, 255));&quot;&gt;&lt;b style=&quot;&quot;&gt;明文&lt;/b&gt;&lt;/font&gt;&lt;div&gt;&lt;font style=&quot;font-size: 16px; color: light-dark(rgb(0, 0, 0), rgb(255, 255, 255));&quot;&gt;&lt;b style=&quot;&quot;&gt;Hello&lt;/b&gt;&lt;/font&gt;&lt;/div&gt;" style="rounded=0;whiteSpace=wrap;html=1;fillColor=#1ba1e2;fontColor=#ffffff;strokeColor=#006EAF;" parent="1" vertex="1">
          <mxGeometry x="141" y="110" width="100" height="60" as="geometry" />
        </mxCell>
        <mxCell id="cdYQqzGVZBBUTroq5Mpv-39" style="edgeStyle=orthogonalEdgeStyle;rounded=0;orthogonalLoop=1;jettySize=auto;html=1;exitX=0.5;exitY=1;exitDx=0;exitDy=0;entryX=0.25;entryY=0;entryDx=0;entryDy=0;" parent="1" edge="1">
          <mxGeometry relative="1" as="geometry">
            <mxPoint x="212" y="320" as="sourcePoint" />
            <mxPoint x="191.5" y="410" as="targetPoint" />
          </mxGeometry>
        </mxCell>
        <mxCell id="cdYQqzGVZBBUTroq5Mpv-4" value="&lt;font color=&quot;#ffffff&quot;&gt;&lt;span style=&quot;font-size: 16px;&quot;&gt;&lt;b&gt;摘要值&lt;/b&gt;&lt;/span&gt;&lt;/font&gt;" style="rounded=0;whiteSpace=wrap;html=1;fillColor=light-dark(#1BA1E2,#C3ABD0);fontColor=#ffffff;strokeColor=#006EAF;fillStyle=solid;" parent="1" vertex="1">
          <mxGeometry x="141" y="260" width="100" height="60" as="geometry" />
        </mxCell>
        <mxCell id="cdYQqzGVZBBUTroq5Mpv-15" style="edgeStyle=orthogonalEdgeStyle;rounded=0;orthogonalLoop=1;jettySize=auto;html=1;" parent="1" edge="1">
          <mxGeometry relative="1" as="geometry">
            <mxPoint x="190" y="369" as="targetPoint" />
            <mxPoint x="118" y="369" as="sourcePoint" />
          </mxGeometry>
        </mxCell>
        <mxCell id="cdYQqzGVZBBUTroq5Mpv-7" value="" style="image;aspect=fixed;perimeter=ellipsePerimeter;html=1;align=center;shadow=0;dashed=0;spacingTop=3;image=img/lib/active_directory/key.svg;imageBackground=none;labelBackgroundColor=light-dark(default, #db1f1f);" parent="1" vertex="1">
          <mxGeometry x="84" y="350" width="50" height="37" as="geometry" />
        </mxCell>
        <mxCell id="cdYQqzGVZBBUTroq5Mpv-21" style="edgeStyle=orthogonalEdgeStyle;rounded=0;orthogonalLoop=1;jettySize=auto;html=1;exitX=0.5;exitY=1;exitDx=0;exitDy=0;entryX=0.5;entryY=1;entryDx=0;entryDy=0;" parent="1" source="cdYQqzGVZBBUTroq5Mpv-8" target="cdYQqzGVZBBUTroq5Mpv-18" edge="1">
          <mxGeometry relative="1" as="geometry" />
        </mxCell>
        <mxCell id="cdYQqzGVZBBUTroq5Mpv-8" value="" style="rounded=1;whiteSpace=wrap;html=1;" parent="1" vertex="1">
          <mxGeometry x="145" y="410" width="210" height="100" as="geometry" />
        </mxCell>
        <mxCell id="cdYQqzGVZBBUTroq5Mpv-10" value="&lt;font style=&quot;font-size: 16px; color: light-dark(rgb(0, 0, 0), rgb(255, 255, 255));&quot;&gt;&lt;b&gt;明文&lt;/b&gt;&lt;/font&gt;&lt;div&gt;&lt;font style=&quot;font-size: 16px; color: light-dark(rgb(0, 0, 0), rgb(255, 255, 255));&quot;&gt;&lt;b&gt;Hello&lt;/b&gt;&lt;/font&gt;&lt;/div&gt;" style="rounded=0;whiteSpace=wrap;html=1;fillColor=#1ba1e2;fontColor=#ffffff;strokeColor=#006EAF;" parent="1" vertex="1">
          <mxGeometry x="240" y="430" width="100" height="60" as="geometry" />
        </mxCell>
        <mxCell id="cdYQqzGVZBBUTroq5Mpv-11" value="" style="image;aspect=fixed;perimeter=ellipsePerimeter;html=1;align=center;shadow=0;dashed=0;spacingTop=3;image=img/lib/active_directory/home_page.svg;" parent="1" vertex="1">
          <mxGeometry x="170" y="437.5" width="50" height="45" as="geometry" />
        </mxCell>
        <mxCell id="cdYQqzGVZBBUTroq5Mpv-12" value="" style="endArrow=none;dashed=1;html=1;dashPattern=1 3;strokeWidth=2;rounded=0;" parent="1" edge="1">
          <mxGeometry width="50" height="50" relative="1" as="geometry">
            <mxPoint x="380" y="510" as="sourcePoint" />
            <mxPoint x="380" y="40" as="targetPoint" />
          </mxGeometry>
        </mxCell>
        <mxCell id="cdYQqzGVZBBUTroq5Mpv-13" value="&lt;font style=&quot;font-size: 17px; color: light-dark(rgb(0, 0, 0), rgb(0, 0, 231));&quot;&gt;&lt;b style=&quot;&quot;&gt;甲方&lt;/b&gt;&lt;/font&gt;" style="text;html=1;align=center;verticalAlign=middle;resizable=0;points=[];autosize=1;strokeColor=none;fillColor=none;" parent="1" vertex="1">
          <mxGeometry x="161" y="48" width="60" height="30" as="geometry" />
        </mxCell>
        <mxCell id="cdYQqzGVZBBUTroq5Mpv-14" value="&lt;font style=&quot;font-size: 17px; color: light-dark(rgb(0, 0, 0), rgb(0, 0, 231));&quot;&gt;&lt;b style=&quot;&quot;&gt;乙方&lt;/b&gt;&lt;/font&gt;" style="text;html=1;align=center;verticalAlign=middle;resizable=0;points=[];autosize=1;strokeColor=none;fillColor=none;" parent="1" vertex="1">
          <mxGeometry x="537.35" y="48" width="60" height="30" as="geometry" />
        </mxCell>
        <mxCell id="cdYQqzGVZBBUTroq5Mpv-16" value="甲方私钥" style="text;html=1;align=center;verticalAlign=middle;resizable=0;points=[];autosize=1;strokeColor=none;fillColor=none;" parent="1" vertex="1">
          <mxGeometry x="98" y="330" width="70" height="30" as="geometry" />
        </mxCell>
        <mxCell id="cdYQqzGVZBBUTroq5Mpv-24" style="edgeStyle=orthogonalEdgeStyle;rounded=0;orthogonalLoop=1;jettySize=auto;html=1;exitX=0.25;exitY=0;exitDx=0;exitDy=0;entryX=0.5;entryY=1;entryDx=0;entryDy=0;" parent="1" source="cdYQqzGVZBBUTroq5Mpv-18" target="cdYQqzGVZBBUTroq5Mpv-22" edge="1">
          <mxGeometry relative="1" as="geometry" />
        </mxCell>
        <mxCell id="cdYQqzGVZBBUTroq5Mpv-26" style="edgeStyle=orthogonalEdgeStyle;rounded=0;orthogonalLoop=1;jettySize=auto;html=1;exitX=0.75;exitY=0;exitDx=0;exitDy=0;" parent="1" source="cdYQqzGVZBBUTroq5Mpv-18" target="cdYQqzGVZBBUTroq5Mpv-23" edge="1">
          <mxGeometry relative="1" as="geometry" />
        </mxCell>
        <mxCell id="cdYQqzGVZBBUTroq5Mpv-38" value="Hash函数" style="edgeLabel;html=1;align=center;verticalAlign=middle;resizable=0;points=[];" parent="cdYQqzGVZBBUTroq5Mpv-26" vertex="1" connectable="0">
          <mxGeometry x="0.0055" y="2" relative="1" as="geometry">
            <mxPoint x="-3" y="-2" as="offset" />
          </mxGeometry>
        </mxCell>
        <mxCell id="cdYQqzGVZBBUTroq5Mpv-18" value="" style="rounded=1;whiteSpace=wrap;html=1;" parent="1" vertex="1">
          <mxGeometry x="468" y="410" width="210" height="100" as="geometry" />
        </mxCell>
        <mxCell id="cdYQqzGVZBBUTroq5Mpv-19" value="&lt;font style=&quot;font-size: 16px; color: light-dark(rgb(0, 0, 0), rgb(255, 255, 255));&quot;&gt;&lt;b&gt;明文&lt;/b&gt;&lt;/font&gt;&lt;div&gt;&lt;font style=&quot;font-size: 16px; color: light-dark(rgb(0, 0, 0), rgb(255, 255, 255));&quot;&gt;&lt;b&gt;Hello&lt;/b&gt;&lt;/font&gt;&lt;/div&gt;" style="rounded=0;whiteSpace=wrap;html=1;fillColor=#1ba1e2;fontColor=#ffffff;strokeColor=#006EAF;" parent="1" vertex="1">
          <mxGeometry x="560" y="430" width="100" height="60" as="geometry" />
        </mxCell>
        <mxCell id="cdYQqzGVZBBUTroq5Mpv-20" value="" style="image;aspect=fixed;perimeter=ellipsePerimeter;html=1;align=center;shadow=0;dashed=0;spacingTop=3;image=img/lib/active_directory/home_page.svg;" parent="1" vertex="1">
          <mxGeometry x="490" y="437.5" width="50" height="45" as="geometry" />
        </mxCell>
        <mxCell id="cdYQqzGVZBBUTroq5Mpv-22" value="&lt;font color=&quot;#ffffff&quot;&gt;&lt;span style=&quot;font-size: 16px;&quot;&gt;&lt;b&gt;原摘要值&lt;/b&gt;&lt;/span&gt;&lt;/font&gt;" style="rounded=0;whiteSpace=wrap;html=1;fillColor=light-dark(#1BA1E2,#C3ABD0);fontColor=#ffffff;strokeColor=#006EAF;fillStyle=solid;" parent="1" vertex="1">
          <mxGeometry x="480" y="260" width="80" height="60" as="geometry" />
        </mxCell>
        <mxCell id="cdYQqzGVZBBUTroq5Mpv-23" value="&lt;font color=&quot;#ffffff&quot;&gt;&lt;span style=&quot;font-size: 16px;&quot;&gt;&lt;b&gt;新摘要值&lt;/b&gt;&lt;/span&gt;&lt;/font&gt;" style="rounded=0;whiteSpace=wrap;html=1;fillColor=light-dark(#1BA1E2,#C3ABD0);fontColor=#ffffff;strokeColor=#006EAF;fillStyle=solid;" parent="1" vertex="1">
          <mxGeometry x="590" y="260" width="70" height="60" as="geometry" />
        </mxCell>
        <mxCell id="cdYQqzGVZBBUTroq5Mpv-27" value="相同，是甲方发送的" style="text;html=1;align=center;verticalAlign=middle;resizable=0;points=[];autosize=1;strokeColor=none;fillColor=none;" parent="1" vertex="1">
          <mxGeometry x="510.35" y="140" width="130" height="30" as="geometry" />
        </mxCell>
        <mxCell id="cdYQqzGVZBBUTroq5Mpv-35" style="edgeStyle=orthogonalEdgeStyle;rounded=0;orthogonalLoop=1;jettySize=auto;html=1;exitX=1;exitY=0.5;exitDx=0;exitDy=0;exitPerimeter=0;" parent="1" edge="1">
          <mxGeometry relative="1" as="geometry">
            <mxPoint x="521" y="369" as="targetPoint" />
            <mxPoint x="449" y="369.5" as="sourcePoint" />
          </mxGeometry>
        </mxCell>
        <mxCell id="cdYQqzGVZBBUTroq5Mpv-29" value="" style="shape=mxgraph.cisco.misc.key;sketch=0;html=1;pointerEvents=1;dashed=0;fillColor=#036897;strokeColor=#ffffff;strokeWidth=2;verticalLabelPosition=bottom;verticalAlign=top;align=center;outlineConnect=0;" parent="1" vertex="1">
          <mxGeometry x="410" y="360" width="48" height="19" as="geometry" />
        </mxCell>
        <mxCell id="cdYQqzGVZBBUTroq5Mpv-30" value="" style="strokeWidth=2;html=1;shape=mxgraph.flowchart.annotation_2;align=left;labelPosition=right;pointerEvents=1;rotation=91;" parent="1" vertex="1">
          <mxGeometry x="532.35" y="170" width="90" height="100" as="geometry" />
        </mxCell>
        <mxCell id="cdYQqzGVZBBUTroq5Mpv-33" value="=" style="text;html=1;align=center;verticalAlign=middle;resizable=0;points=[];autosize=1;strokeColor=none;fillColor=none;" parent="1" vertex="1">
          <mxGeometry x="560.35" y="275" width="30" height="30" as="geometry" />
        </mxCell>
        <mxCell id="cdYQqzGVZBBUTroq5Mpv-34" value="？" style="text;html=1;align=center;verticalAlign=middle;resizable=0;points=[];autosize=1;strokeColor=none;fillColor=none;" parent="1" vertex="1">
          <mxGeometry x="557.35" y="260" width="40" height="30" as="geometry" />
        </mxCell>
        <mxCell id="cdYQqzGVZBBUTroq5Mpv-37" value="甲方公钥" style="text;html=1;align=center;verticalAlign=middle;resizable=0;points=[];autosize=1;strokeColor=none;fillColor=none;" parent="1" vertex="1">
          <mxGeometry x="410" y="330" width="70" height="30" as="geometry" />
        </mxCell>
      </root>
    </mxGraphModel>
  </diagram>
  <diagram id="aoTv0ya6fQXvx_F8pxBc" name="DLMS HDLC通讯交互过程">
    <mxGraphModel dx="1042" dy="535" grid="1" gridSize="10" guides="1" tooltips="1" connect="1" arrows="1" fold="1" page="1" pageScale="1" pageWidth="850" pageHeight="1100" math="0" shadow="0">
      <root>
        <mxCell id="0" />
        <mxCell id="1" parent="0" />
        <mxCell id="Kb2xmP-irHjxHoE5xgdJ-3" value="Client" style="shape=umlLifeline;perimeter=lifelinePerimeter;whiteSpace=wrap;container=1;dropTarget=0;collapsible=0;recursiveResize=0;outlineConnect=0;portConstraint=eastwest;newEdgeStyle={&quot;edgeStyle&quot;:&quot;elbowEdgeStyle&quot;,&quot;elbow&quot;:&quot;vertical&quot;,&quot;curved&quot;:0,&quot;rounded&quot;:0};size=65;" parent="1" vertex="1">
          <mxGeometry x="98" y="20" width="150" height="950" as="geometry" />
        </mxCell>
        <mxCell id="Kb2xmP-irHjxHoE5xgdJ-4" value="Server" style="shape=umlLifeline;perimeter=lifelinePerimeter;whiteSpace=wrap;container=1;dropTarget=0;collapsible=0;recursiveResize=0;outlineConnect=0;portConstraint=eastwest;newEdgeStyle={&quot;edgeStyle&quot;:&quot;elbowEdgeStyle&quot;,&quot;elbow&quot;:&quot;vertical&quot;,&quot;curved&quot;:0,&quot;rounded&quot;:0};size=65;" parent="1" vertex="1">
          <mxGeometry x="424" y="20" width="150" height="950" as="geometry" />
        </mxCell>
        <mxCell id="Kb2xmP-irHjxHoE5xgdJ-5" value="激活光学端口（IEC 62056-21标准）" style="verticalAlign=bottom;edgeStyle=elbowEdgeStyle;elbow=vertical;curved=0;rounded=0;endArrow=block;" parent="1" source="Kb2xmP-irHjxHoE5xgdJ-3" target="Kb2xmP-irHjxHoE5xgdJ-4" edge="1">
          <mxGeometry relative="1" as="geometry">
            <Array as="points">
              <mxPoint x="345" y="179" />
            </Array>
          </mxGeometry>
        </mxCell>
        <mxCell id="Kb2xmP-irHjxHoE5xgdJ-6" value="返回载波信号" style="verticalAlign=bottom;edgeStyle=elbowEdgeStyle;elbow=vertical;curved=0;rounded=0;dashed=1;dashPattern=2 3;endArrow=block;" parent="1" source="Kb2xmP-irHjxHoE5xgdJ-4" target="Kb2xmP-irHjxHoE5xgdJ-3" edge="1">
          <mxGeometry relative="1" as="geometry">
            <Array as="points">
              <mxPoint x="348" y="233" />
            </Array>
          </mxGeometry>
        </mxCell>
        <mxCell id="Kb2xmP-irHjxHoE5xgdJ-7" value="SNRM帧（设置NRM模式）" style="verticalAlign=bottom;edgeStyle=elbowEdgeStyle;elbow=vertical;curved=0;rounded=0;endArrow=block;" parent="1" source="Kb2xmP-irHjxHoE5xgdJ-3" target="Kb2xmP-irHjxHoE5xgdJ-4" edge="1">
          <mxGeometry relative="1" as="geometry">
            <Array as="points">
              <mxPoint x="345" y="335" />
            </Array>
          </mxGeometry>
        </mxCell>
        <mxCell id="Kb2xmP-irHjxHoE5xgdJ-8" value="UA帧（确认模式）" style="verticalAlign=bottom;edgeStyle=elbowEdgeStyle;elbow=vertical;curved=0;rounded=0;dashed=1;dashPattern=2 3;endArrow=block;" parent="1" source="Kb2xmP-irHjxHoE5xgdJ-4" target="Kb2xmP-irHjxHoE5xgdJ-3" edge="1">
          <mxGeometry relative="1" as="geometry">
            <Array as="points">
              <mxPoint x="348" y="389" />
            </Array>
          </mxGeometry>
        </mxCell>
        <mxCell id="Kb2xmP-irHjxHoE5xgdJ-9" value="AARQ帧（应用层连接请求）" style="verticalAlign=bottom;edgeStyle=elbowEdgeStyle;elbow=vertical;curved=0;rounded=0;endArrow=block;" parent="1" source="Kb2xmP-irHjxHoE5xgdJ-3" target="Kb2xmP-irHjxHoE5xgdJ-4" edge="1">
          <mxGeometry relative="1" as="geometry">
            <Array as="points">
              <mxPoint x="345" y="491" />
            </Array>
          </mxGeometry>
        </mxCell>
        <mxCell id="Kb2xmP-irHjxHoE5xgdJ-10" value="AARE帧（连接响应）" style="verticalAlign=bottom;edgeStyle=elbowEdgeStyle;elbow=vertical;curved=0;rounded=0;dashed=1;dashPattern=2 3;endArrow=block;" parent="1" source="Kb2xmP-irHjxHoE5xgdJ-4" target="Kb2xmP-irHjxHoE5xgdJ-3" edge="1">
          <mxGeometry relative="1" as="geometry">
            <Array as="points">
              <mxPoint x="348" y="547" />
            </Array>
          </mxGeometry>
        </mxCell>
        <mxCell id="Kb2xmP-irHjxHoE5xgdJ-11" value="GET请求帧（读取电压值）" style="verticalAlign=bottom;edgeStyle=elbowEdgeStyle;elbow=vertical;curved=0;rounded=0;endArrow=block;" parent="1" source="Kb2xmP-irHjxHoE5xgdJ-3" target="Kb2xmP-irHjxHoE5xgdJ-4" edge="1">
          <mxGeometry relative="1" as="geometry">
            <Array as="points">
              <mxPoint x="345" y="651" />
            </Array>
          </mxGeometry>
        </mxCell>
        <mxCell id="Kb2xmP-irHjxHoE5xgdJ-12" value="数据响应帧（含电压值23.4kV）" style="verticalAlign=bottom;edgeStyle=elbowEdgeStyle;elbow=vertical;curved=0;rounded=0;dashed=1;dashPattern=2 3;endArrow=block;" parent="1" source="Kb2xmP-irHjxHoE5xgdJ-4" target="Kb2xmP-irHjxHoE5xgdJ-3" edge="1">
          <mxGeometry relative="1" as="geometry">
            <Array as="points">
              <mxPoint x="348" y="707" />
            </Array>
          </mxGeometry>
        </mxCell>
        <mxCell id="Kb2xmP-irHjxHoE5xgdJ-13" value="DISC帧（断开链路）" style="verticalAlign=bottom;edgeStyle=elbowEdgeStyle;elbow=vertical;curved=0;rounded=0;endArrow=block;" parent="1" source="Kb2xmP-irHjxHoE5xgdJ-3" target="Kb2xmP-irHjxHoE5xgdJ-4" edge="1">
          <mxGeometry relative="1" as="geometry">
            <Array as="points">
              <mxPoint x="345" y="811" />
            </Array>
          </mxGeometry>
        </mxCell>
        <mxCell id="Kb2xmP-irHjxHoE5xgdJ-14" value="UA帧（确认释放）" style="verticalAlign=bottom;edgeStyle=elbowEdgeStyle;elbow=vertical;curved=0;rounded=0;dashed=1;dashPattern=2 3;endArrow=block;" parent="1" source="Kb2xmP-irHjxHoE5xgdJ-4" target="Kb2xmP-irHjxHoE5xgdJ-3" edge="1">
          <mxGeometry relative="1" as="geometry">
            <Array as="points">
              <mxPoint x="348" y="865" />
            </Array>
          </mxGeometry>
        </mxCell>
        <mxCell id="Kb2xmP-irHjxHoE5xgdJ-15" value="1. 物理层连接建立" style="fillColor=#ffff88;strokeColor=#9E916F;" parent="1" vertex="1">
          <mxGeometry x="148" y="95" width="376" height="48" as="geometry" />
        </mxCell>
        <mxCell id="Kb2xmP-irHjxHoE5xgdJ-16" value="2. 链路层HDLC连接" style="fillColor=#ffff88;strokeColor=#9E916F;" parent="1" vertex="1">
          <mxGeometry x="148" y="253" width="376" height="48" as="geometry" />
        </mxCell>
        <mxCell id="Kb2xmP-irHjxHoE5xgdJ-17" value="3. 应用层DLMS连接" style="fillColor=#ffff88;strokeColor=#9E916F;" parent="1" vertex="1">
          <mxGeometry x="148" y="409" width="376" height="48" as="geometry" />
        </mxCell>
        <mxCell id="Kb2xmP-irHjxHoE5xgdJ-18" value="4. 数据请求与响应" style="fillColor=#ffff88;strokeColor=#9E916F;" parent="1" vertex="1">
          <mxGeometry x="148" y="567" width="376" height="48" as="geometry" />
        </mxCell>
        <mxCell id="Kb2xmP-irHjxHoE5xgdJ-19" value="5. 连接释放" style="fillColor=#ffff88;strokeColor=#9E916F;" parent="1" vertex="1">
          <mxGeometry x="148" y="727" width="376" height="48" as="geometry" />
        </mxCell>
      </root>
    </mxGraphModel>
  </diagram>
  <diagram id="Aqdl7X-djzitnli8pyJz" name="Solution">
    <mxGraphModel dx="1097" dy="487" grid="1" gridSize="10" guides="1" tooltips="1" connect="1" arrows="1" fold="1" page="1" pageScale="1" pageWidth="850" pageHeight="1100" math="0" shadow="0">
      <root>
        <mxCell id="0" />
        <mxCell id="1" parent="0" />
      </root>
    </mxGraphModel>
  </diagram>
</mxfile>
